<?xml version="1.0" encoding="UTF-8"?>
<svg width="68px" height="45px" viewBox="0 0 68 45" version="1.1" xmlns="http://www.w3.org/2000/svg" xmlns:xlink="http://www.w3.org/1999/xlink">
    <!-- Generator: Sketch 48.2 (47327) - http://www.bohemiancoding.com/sketch -->
    <title>Page 1</title>
    <desc>Created with Sketch.</desc>
    <defs>
        <polygon id="path-1" points="34 0 68 0 68 45 34 45 0 45 0 0 34 0"></polygon>
    </defs>
    <g id="Sidebar/Light/Default" stroke="none" stroke-width="1" fill="none" fill-rule="evenodd" transform="translate(-52.000000, -33.000000)">
        <g id="Page-1" transform="translate(52.000000, 33.000000)">
            <mask id="mask-2" fill="white">
                <use xlink:href="#path-1"></use>
            </mask>
            <g id="Clip-2"></g>
            <path d="M58.6731043,13.9063525 C56.3628901,13.9063525 54.4832996,11.9725781 54.4832996,9.59532594 C54.4832996,7.21851421 56.3628901,5.28473982 58.6731043,5.28473982 C60.9833184,5.28473982 62.8633371,7.21851421 62.8633371,9.59532594 C62.8633371,11.9725781 60.9833184,13.9063525 58.6731043,13.9063525 M58.6731043,0 C53.5304486,0 49.3466366,4.30442059 49.3466366,9.59532594 C49.3466366,14.0041201 52.2522756,17.7254578 56.1963766,18.8449418 C55.5333191,30.3938599 46.4427098,39.6205753 35.2798852,39.7143794 C35.2220977,39.7152602 35.1651664,39.7152602 35.1073789,39.7152602 C23.5301968,39.7152602 14.0611867,29.8596608 13.9644462,17.6629217 L13.9430435,15.0513794 L22.5199864,15.0513794 L22.5199864,9.76663959 L0,9.76663959 L0,15.0513794 L8.8068086,15.0637105 L8.8277833,17.7060804 C8.94806683,32.8028205 20.7165897,45 35.1069509,45 C35.1784361,45 35.2499213,44.9995596 35.3214065,44.9991192 C49.3205252,44.8810934 60.7033703,33.2586293 61.3467373,18.7872501 C65.1906734,17.6017068 68,13.9305742 68,9.59532594 C68,4.30442059 63.816188,0 58.6731043,0" id="Fill-1" fill="#FFFFFF" mask="url(#mask-2)"></path>
        </g>
    </g>
</svg>