<?xml version="1.0" encoding="UTF-8"?>
<svg width="13px" height="8px" viewBox="0 0 13 8" version="1.1" xmlns="http://www.w3.org/2000/svg" xmlns:xlink="http://www.w3.org/1999/xlink">
    <!-- Generator: Sketch 48.2 (47327) - http://www.bohemiancoding.com/sketch -->
    <title>DropDownIcon Copy 6</title>
    <desc>Created with Sketch.</desc>
    <defs></defs>
    <g id="Account" stroke="none" stroke-width="1" fill="none" fill-rule="evenodd" transform="translate(-204.000000, -17.000000)">
        <g transform="translate(64.000000, 2.000000)" fill="#352C60" id="Avatar" stroke="#FFFFFF" stroke-width="0.3">
            <g transform="translate(0.000000, 0.548495)">
                <path d="M145.427533,21.4731798 C145.689124,21.7709143 146.034536,21.9343559 146.404817,21.9343559 C146.774176,21.9343559 147.12143,21.7709143 147.381179,21.4731798 L151.661517,16.4533345 C152.021666,16.0421278 152.021666,15.3769098 151.661517,14.9657031 C151.302289,14.5544963 150.719235,14.5544963 150.359086,14.9657031 L146.404817,19.6139007 L142.449626,14.9657031 C142.089477,14.5544963 141.507344,14.5544963 141.147195,14.9657031 C140.787046,15.3769098 140.787046,16.0421278 141.147195,16.4533345 L145.427533,21.4731798 Z" id="DropDownIcon-Copy-6" transform="translate(146.404356, 18.295827) scale(-1, 1) translate(-146.404356, -18.295827) "></path>
            </g>
        </g>
    </g>
</svg>