<?xml version="1.0" encoding="UTF-8"?>
<svg width="14px" height="14px" viewBox="0 0 14 14" version="1.1" xmlns="http://www.w3.org/2000/svg" xmlns:xlink="http://www.w3.org/1999/xlink">
    <!-- Generator: Sketch 48.2 (47327) - http://www.bohemiancoding.com/sketch -->
    <title>Fill 1</title>
    <desc>Created with Sketch.</desc>
    <defs></defs>
    <g id="Sidebar/Light/Default" stroke="none" stroke-width="1" fill="none" fill-rule="evenodd" transform="translate(-19.000000, -267.000000)">
        <g id="Page-1-Copy-4" transform="translate(19.000000, 267.000000)" fill="#FFFFFF">
            <path d="M11.5050844,6.40551735 L7.31379328,6.40551735 L7.31379328,2.32686349 L6.58241395,2.32686349 L6.58241395,7.1172415 L11.5050844,7.1172415 L11.5050844,6.40551735 Z M6.94810362,0.71172415 C3.5203725,0.71172415 0.731379328,3.42576557 0.731379328,6.76137942 C0.731379328,10.0969933 3.5203725,12.8110347 6.94810362,12.8110347 C10.3758347,12.8110347 13.1648279,10.0969933 13.1648279,6.76137942 C13.1648279,3.42576557 10.3758347,0.71172415 6.94810362,0.71172415 Z M6.94810362,13.5227588 C3.11665111,13.5227588 0,10.4893905 0,6.76137942 C0,3.03336833 3.11665111,0 6.94810362,0 C10.7790685,0 13.8962072,3.03336833 13.8962072,6.76137942 C13.8962072,10.4893905 10.7790685,13.5227588 6.94810362,13.5227588 Z" id="Fill-1"></path>
        </g>
    </g>
</svg>