<?xml version="1.0" encoding="UTF-8"?>
<svg width="7px" height="14px" viewBox="0 0 7 14" version="1.1" xmlns="http://www.w3.org/2000/svg" xmlns:xlink="http://www.w3.org/1999/xlink">
    <!-- Generator: Sketch 48.2 (47327) - http://www.bohemiancoding.com/sketch -->
    <title>Page 1</title>
    <desc>Created with Sketch.</desc>
    <defs>
        <polygon id="path-1" points="1.62946908e-20 1.65326533e-15 1.62946908e-20 14 7 14 7 0"></polygon>
    </defs>
    <g id="Sidebar/Light/Default" stroke="none" stroke-width="1" fill="none" fill-rule="evenodd" transform="translate(-22.000000, -180.000000)">
        <g id="Page-1" transform="translate(22.000000, 180.000000)">
            <mask id="mask-2" fill="white">
                <use xlink:href="#path-1"></use>
            </mask>
            <g id="Clip-2"></g>
            <path d="M4.40411979,6.99837128 C4.00447384,6.84061825 3.63320227,6.70380588 3.29270969,6.57862722 C1.52772698,5.92946651 0.91695639,5.65398039 0.91695639,4.6544125 C0.91695639,4.42964933 0.990056492,2.46169187 3.52884226,2.46169187 C5.59728658,2.46169187 6.27923358,3.92660794 6.30760796,3.98942995 C6.3859982,4.16579691 6.59808468,4.24862888 6.77939217,4.17324248 C6.96310427,4.09832142 7.04918926,3.89310288 6.97127994,3.71580522 C6.93809634,3.63948812 6.16044592,1.93538308 3.86644931,1.77902609 C3.86789207,1.76739239 3.87318221,1.75762008 3.87318221,1.74598637 L3.87318221,0.349011135 C3.87318221,0.156356989 3.71207343,0 3.51249092,0 C3.31338933,0 3.15179963,0.156356989 3.15179963,0.349011135 L3.15179963,1.74598637 C3.15179963,1.75808542 3.15805161,1.76832308 3.15901345,1.78042214 C0.828947715,1.94980887 0.195573808,3.70324082 0.195573808,4.6544125 C0.195573808,6.18633871 1.32573985,6.60189463 3.03637842,7.23104537 C3.37783284,7.35715473 3.75102809,7.49350175 4.15259773,7.65265082 C4.1675063,7.65870035 4.18337672,7.66381918 4.19924714,7.66754196 C4.28148475,7.68801728 6.2176756,8.19198936 6.2176756,9.74997507 C6.2176756,9.75648995 6.23017957,10.3926209 5.72521176,10.9012465 C5.27410718,11.3558916 4.54647262,11.5867043 3.5519265,11.5867043 C1.48444402,11.6574373 0.72122125,10.0873525 0.690923181,10.0217384 C0.611090175,9.8449061 0.398522775,9.76533156 0.215772521,9.84257936 C0.0335031883,9.91982716 -0.0496962695,10.1259764 0.030617658,10.3028087 C0.0662058653,10.3819179 0.896757678,12.1390726 3.15179963,12.2735583 L3.15179963,13.6509889 C3.15179963,13.843643 3.31338933,14 3.51249092,14 C3.71207343,14 3.87318221,13.843643 3.87318221,13.6509889 L3.87318221,12.2744889 C4.90764483,12.2246967 5.70645581,11.9282699 6.24556906,11.3847432 C6.96935625,10.6550773 6.94002003,9.75974738 6.93905818,9.73601463 C6.93905818,7.73734419 4.68930637,7.07422303 4.40411979,6.99837128" id="Fill-1" fill="#FFFFFF" mask="url(#mask-2)"></path>
        </g>
    </g>
</svg>