<?xml version="1.0" encoding="UTF-8"?>
<svg width="13px" height="14px" viewBox="0 0 13 14" version="1.1" xmlns="http://www.w3.org/2000/svg" xmlns:xlink="http://www.w3.org/1999/xlink">
    <!-- Generator: Sketch 48.2 (47327) - http://www.bohemiancoding.com/sketch -->
    <title>Fill 1</title>
    <desc>Created with Sketch.</desc>
    <defs></defs>
    <g id="Sidebar/Light/Default" stroke="none" stroke-width="1" fill="none" fill-rule="evenodd" transform="translate(-19.000000, -224.000000)">
        <g id="Page-1" transform="translate(19.000000, 224.000000)" fill="#FFFFFF">
            <path d="M0.687085725,13.0475333 C0.747428583,9.97593333 3.19542862,7.4942 6.21211438,7.448 C6.24045724,7.44893333 6.26788581,7.45266667 6.29668581,7.45266667 C6.32502867,7.45266667 6.35245724,7.44893333 6.38034295,7.448 C9.40297157,7.4942 11.855543,9.98573333 11.9062859,13.0662 L0.687085725,13.0475333 Z M3.33165719,3.72586667 C3.33165719,2.05753333 4.66148578,0.7 6.29668581,0.7 C7.93142869,0.7 9.26125728,2.05753333 9.26125728,3.72586667 C9.26125728,5.3662 7.97577155,6.70226667 6.38034295,6.748 C6.35200009,6.74753333 6.32457152,6.7438 6.29668581,6.7438 C6.26834295,6.7438 6.24091438,6.74753333 6.21257152,6.748 C4.61714293,6.70226667 3.33165719,5.3662 3.33165719,3.72586667 Z M8.03931441,6.99953333 C9.17440014,6.3672 9.94697158,5.13706667 9.94697158,3.72586667 C9.94697158,1.6716 8.30948584,0 6.29668581,0 C4.28342864,0 2.6459429,1.6716 2.6459429,3.72586667 C2.6459429,5.13706667 3.41851434,6.3672 4.55360007,6.99953333 C1.92777146,7.7728 0,10.241 0,13.1637333 C0,13.2645333 0.00228571432,13.2892667 0.0064000001,13.3410667 L0.0320000005,13.7466 L12.559543,13.7671333 L12.5860573,13.3564667 C12.5906288,13.2986 12.5929145,13.2696667 12.5929145,13.1637333 C12.5929145,10.241 10.665143,7.7728 8.03931441,6.99953333 Z" id="Fill-1"></path>
        </g>
    </g>
</svg>