<?xml version="1.0" encoding="UTF-8"?>
<svg width="11px" height="12px" viewBox="0 0 11 12" version="1.1" xmlns="http://www.w3.org/2000/svg" xmlns:xlink="http://www.w3.org/1999/xlink">
    <!-- Generator: Sketch 48.2 (47327) - http://www.bohemiancoding.com/sketch -->
    <title>Page 1</title>
    <desc>Created with Sketch.</desc>
    <defs></defs>
    <g id="Sidebar/Light/Default" stroke="none" stroke-width="1" fill="none" fill-rule="evenodd" transform="translate(-20.000000, -134.000000)">
        <g id="Page-1" transform="translate(20.000000, 134.000000)" fill="#FFFFFF">
            <path d="M6.78025514,8.31035313 C6.78025514,7.49084738 6.20871513,6.82476509 5.50632346,6.82476509 C4.80357526,6.82476509 4.23239178,7.49084738 4.23239178,8.31035313 L4.23346141,11.3763274 L1.64816094,11.3763274 L1.64816094,3.61534609 L5.52450721,0.684085049 L9.36484253,3.61451452 L9.36484253,11.3763274 L6.78061169,11.3763274 L6.78025514,8.31035313 Z M9.89965852,11.3763274 L9.89965852,3.44612293 C9.89965852,3.34093016 9.85402089,3.24280568 9.77879011,3.18501202 L5.67175987,0.0508495085 C5.58298042,-0.0165071281 5.46817326,-0.0169229098 5.3793938,0.0504337268 L1.23528299,3.18459624 C1.15933912,3.24197411 1.11334495,3.34051438 1.11334495,3.44612293 L1.11334495,11.3763274 L-0.000141935484,11.3763274 L-0.000141935484,12 L4.7682774,12 L4.76720777,8.31035313 C4.76720777,7.83469885 5.09843714,7.44843765 5.50632346,7.44843765 C5.91385324,7.44843765 6.24543916,7.83469885 6.24543916,8.31035313 L6.2457957,12 L10.9956747,12 L10.9956747,11.3763274 L9.89965852,11.3763274 Z" id="Fill-1"></path>
        </g>
    </g>
</svg>