<?xml version="1.0" encoding="UTF-8"?>
<svg width="16px" height="14px" viewBox="0 0 16 14" version="1.1" xmlns="http://www.w3.org/2000/svg" xmlns:xlink="http://www.w3.org/1999/xlink">
    <!-- Generator: Sketch 48.2 (47327) - http://www.bohemiancoding.com/sketch -->
    <title>Page 1</title>
    <desc>Created with Sketch.</desc>
    <defs></defs>
    <g id="Sidebar/Light/Default" stroke="none" stroke-width="1" fill="none" fill-rule="evenodd" transform="translate(-20.000000, -312.000000)">
        <path d="M29.292521,323.204776 L32.0232246,323.204776 L32.0232246,314.186087 L29.292521,314.186087 L29.292521,323.204776 Z M28.5304641,323.966832 L32.7852814,323.966832 L32.7852814,313.42403 L28.5304641,313.42403 L28.5304641,323.966832 Z M23.9383097,323.204268 L26.6695214,323.204268 L26.6695214,317.44515 L23.9383097,317.44515 L23.9383097,323.204268 Z M23.1762529,323.966324 L27.4315782,323.966324 L27.4315782,316.683093 L23.1762529,316.683093 L23.1762529,323.966324 Z M35.3711943,326 L20.9500308,326 C20.4262438,326 20,325.558515 20,325.016439 L20,312 L20.7620568,312 L20.7620568,325.016439 C20.7620568,325.136336 20.8484233,325.237943 20.9500308,325.237943 L35.3711943,325.237943 L35.3711943,326 Z" id="Page-1" fill="#FFFFFF"></path>
    </g>
</svg>