<?xml version="1.0" encoding="UTF-8"?>
<svg width="9px" height="15px" viewBox="0 0 9 15" version="1.1" xmlns="http://www.w3.org/2000/svg" xmlns:xlink="http://www.w3.org/1999/xlink">
    <!-- Generator: Sketch 48.2 (47327) - http://www.bohemiancoding.com/sketch -->
    <title>Page 1</title>
    <desc>Created with Sketch.</desc>
    <defs>
        <polygon id="path-1" points="9 0 0 0 0 15 9 15"></polygon>
    </defs>
    <g id="Sidebar/Light/Default" stroke="none" stroke-width="1" fill="none" fill-rule="evenodd" transform="translate(-22.000000, -357.000000)">
        <g id="Page-1" transform="translate(22.000000, 357.000000)">
            <mask id="mask-2" fill="white">
                <use xlink:href="#path-1"></use>
            </mask>
            <g id="Clip-2"></g>
            <path d="M4.5061428,13.6696195 C4.28500208,13.6696195 4.10552555,13.8474977 4.10552555,14.066669 L4.10552555,14.6029505 C4.10552555,14.8221218 4.28500208,15 4.5061428,15 C4.72728352,15 4.90676005,14.8221218 4.90676005,14.6029505 L4.90676005,14.066669 C4.90676005,13.8474977 4.72728352,13.6696195 4.5061428,13.6696195 M9,4.46018917 C9,6.78584033 7.19508576,8.70120703 4.90088433,8.90237877 L4.90088433,11.8108986 C4.90088433,12.0300699 4.7214078,12.207948 4.50026708,12.207948 C4.27912636,12.207948 4.09964983,12.0300699 4.09964983,11.8108986 L4.09964983,8.52279946 C4.09964983,8.30362815 4.27912636,8.12574998 4.50026708,8.12574998 C6.53967595,8.12574998 8.19876551,6.48143573 8.19876551,4.46018917 C8.19876551,2.43894261 6.53967595,0.794098962 4.50026708,0.794098962 C2.46085821,0.794098962 0.801234495,2.43894261 0.801234495,4.46018917 C0.801234495,4.67936049 0.622292124,4.85723865 0.400617247,4.85723865 C0.179476527,4.85723865 0,4.67936049 0,4.46018917 C0,2.00059999 2.01911093,0 4.50026708,0 C6.98142323,0 9,2.00059999 9,4.46018917" id="Fill-1" fill="#FFFFFF" mask="url(#mask-2)"></path>
        </g>
    </g>
</svg>